<?xml version="1.0" encoding="UTF-8" standalone="no"?>
<svg
   width="512px"
   height="512px"
   viewBox="-96 0 512 512"
   version="1.1"
   id="svg3732"
   sodipodi:docname="peonBlanco.svg"
   inkscape:version="1.2.1 (9c6d41e410, 2022-07-14)"
   xmlns:inkscape="http://www.inkscape.org/namespaces/inkscape"
   xmlns:sodipodi="http://sodipodi.sourceforge.net/DTD/sodipodi-0.dtd"
   xmlns="http://www.w3.org/2000/svg"
   xmlns:svg="http://www.w3.org/2000/svg">
  <defs
     id="defs3736" />
  <sodipodi:namedview
     id="namedview3734"
     pagecolor="#ffffff"
     bordercolor="#000000"
     borderopacity="0.25"
     inkscape:showpageshadow="2"
     inkscape:pageopacity="0.0"
     inkscape:pagecheckerboard="0"
     inkscape:deskcolor="#d1d1d1"
     showgrid="false"
     inkscape:zoom="1.5742188"
     inkscape:cx="256"
     inkscape:cy="256"
     inkscape:window-width="1920"
     inkscape:window-height="1009"
     inkscape:window-x="-8"
     inkscape:window-y="1072"
     inkscape:window-maximized="1"
     inkscape:current-layer="svg3732" />
  <path
     d="M105.1 224H80a16 16 0 0 0-16 16v32a16 16 0 0 0 16 16h16v5.49c0 44-4.14 86.6-24 122.51h176c-19.89-35.91-24-78.51-24-122.51V288h16a16 16 0 0 0 16-16v-32a16 16 0 0 0-16-16h-25.1c29.39-18.38 49.1-50.78 49.1-88a104 104 0 0 0-208 0c0 37.22 19.71 69.62 49.1 88zM304 448H16a16 16 0 0 0-16 16v32a16 16 0 0 0 16 16h288a16 16 0 0 0 16-16v-32a16 16 0 0 0-16-16z"
     id="path3730"
     style="fill:#cccccc" />
</svg>
