<?xml version="1.0" encoding="iso-8859-1"?>
<!-- Generator: Adobe Illustrator 18.1.1, SVG Export Plug-In . SVG Version: 6.00 Build 0)  -->
<svg version="1.1" id="Capa_1" xmlns="http://www.w3.org/2000/svg" xmlns:xlink="http://www.w3.org/1999/xlink" x="0px" y="0px"
	 viewBox="0 0 25.813 25.813" style="enable-background:new 0 0 25.813 25.813;" xml:space="preserve">
<g>
	<path style="fill:#030104;" d="M5.093,3.813C5.093,2.812,5.905,2,6.906,2s1.813,0.812,1.813,1.813c0,0.857-0.597,1.571-1.396,1.76
		l1.436,1.373l3.555-3.427c-0.709-0.246-1.221-0.913-1.221-1.706C11.094,0.812,11.906,0,12.906,0s1.813,0.812,1.813,1.813
		c0,0.791-0.51,1.457-1.217,1.705l3.556,3.428l1.433-1.372c-0.8-0.188-1.398-0.903-1.398-1.761C17.094,2.812,17.906,2,18.906,2
		s1.813,0.812,1.813,1.813c0,0.631-0.324,1.186-0.813,1.511v1.489l-3,3h-8l-3-3V5.324C5.418,4.999,5.093,4.444,5.093,3.813z
		 M19.958,22.087l-0.301-0.274h0.25c1.104,0,2-0.672,2-1.5s-0.896-1.5-2-1.5h-1c0-1.648-2.712-1.27-3.668-5h1.668
		c1.104,0,2-0.672,2-1.5s-0.896-1.5-2-1.5h-2h-4h-2c-1.104,0-2,0.672-2,1.5s0.896,1.5,2,1.5h1.668c-0.956,3.73-3.668,3.352-3.668,5
		h-1c-1.104,0-2,0.672-2,1.5s0.896,1.5,2,1.5h0.246l-0.304,0.274c-1.805,1.631-2.693,3.726-0.928,3.726h15.974
		C22.66,25.813,21.765,23.718,19.958,22.087z"/>
</g>
<g>
</g>
<g>
</g>
<g>
</g>
<g>
</g>
<g>
</g>
<g>
</g>
<g>
</g>
<g>
</g>
<g>
</g>
<g>
</g>
<g>
</g>
<g>
</g>
<g>
</g>
<g>
</g>
<g>
</g>
</svg>
