<?xml version="1.0" encoding="UTF-8" standalone="no"?>
<!-- Uploaded to SVGRepo https://www.svgrepo.com -->

<svg
   version="1.2"
   id="Layer_1"
   x="0px"
   y="0px"
   viewBox="0 0 256 256"
   xml:space="preserve"
   sodipodi:docname="reyBlanco.svg"
   inkscape:version="1.2.1 (9c6d41e410, 2022-07-14)"
   xmlns:inkscape="http://www.inkscape.org/namespaces/inkscape"
   xmlns:sodipodi="http://sodipodi.sourceforge.net/DTD/sodipodi-0.dtd"
   xmlns="http://www.w3.org/2000/svg"
   xmlns:svg="http://www.w3.org/2000/svg"><defs
   id="defs9" /><sodipodi:namedview
   id="namedview7"
   pagecolor="#ffffff"
   bordercolor="#000000"
   borderopacity="0.25"
   inkscape:showpageshadow="2"
   inkscape:pageopacity="0.0"
   inkscape:pagecheckerboard="0"
   inkscape:deskcolor="#d1d1d1"
   showgrid="false"
   inkscape:zoom="3.2382812"
   inkscape:cx="125.99276"
   inkscape:cy="152.85887"
   inkscape:window-width="1920"
   inkscape:window-height="1009"
   inkscape:window-x="-8"
   inkscape:window-y="1072"
   inkscape:window-maximized="1"
   inkscape:current-layer="g4" />
<g
   id="g4">
	<rect
   id="XMLID_1_"
   x="68.5"
   y="231.1"
   width="120.8"
   height="24.5"
   style="fill:#cccccc" />
	<path
   id="XMLID_2_"
   d="M86.5,223h84.6l8-27.1c-21.1-23.2-34.5-36.3-34.5-67.1c0-6.3,0.4-7.2,1-13.2h17.1V92.2H150   c0,0,15.9-30.7,15.9-34.4c0-10.2-8.3-18.4-18.4-18.4c-5.2,0-9.8,2.1-13.2,5.6V22.5h11.1V12h-11.1V0h-10.5v12h-11.1v10.5h11.1v22.6   c-3.4-3.5-8.1-5.7-13.3-5.7c-10.2,0-18.4,8.3-18.4,18.4c0,3.6,16.3,34.4,16.3,34.4H95v23.4h17.5c0.7,6,1,6.9,1,13.2   c0,30.8-13.6,44.2-34.8,67.4L86.5,223z"
   style="fill:#cccccc" />
</g>
</svg>
