<?xml version="1.0" encoding="UTF-8" standalone="no"?>
<!-- Generator: Adobe Illustrator 18.0.0, SVG Export Plug-In . SVG Version: 6.00 Build 0)  -->

<svg
   version="1.1"
   id="Capa_1"
   x="0px"
   y="0px"
   viewBox="0 0 480.251 480.251"
   style="enable-background:new 0 0 480.251 480.251;"
   xml:space="preserve"
   sodipodi:docname="torreBlanco.svg"
   inkscape:version="1.2.1 (9c6d41e410, 2022-07-14)"
   xmlns:inkscape="http://www.inkscape.org/namespaces/inkscape"
   xmlns:sodipodi="http://sodipodi.sourceforge.net/DTD/sodipodi-0.dtd"
   xmlns="http://www.w3.org/2000/svg"
   xmlns:svg="http://www.w3.org/2000/svg"><defs
   id="defs8321" /><sodipodi:namedview
   id="namedview8319"
   pagecolor="#ffffff"
   bordercolor="#000000"
   borderopacity="0.25"
   inkscape:showpageshadow="2"
   inkscape:pageopacity="0.0"
   inkscape:pagecheckerboard="0"
   inkscape:deskcolor="#d1d1d1"
   showgrid="false"
   inkscape:zoom="1.6782891"
   inkscape:cx="240.1255"
   inkscape:cy="240.1255"
   inkscape:window-width="1920"
   inkscape:window-height="1009"
   inkscape:window-x="-8"
   inkscape:window-y="1072"
   inkscape:window-maximized="1"
   inkscape:current-layer="Capa_1" />
<g
   id="g8286"
   style="fill:#cccccc">
	<path
   d="M365.448,432.474h-0.232c6.283-5.818,10.28-14.067,10.28-23.306c0-17.59-14.262-31.852-31.852-31.852h-6.385   l-35.133-175.279c14.588-2.908,25.591-15.778,25.591-31.221c0-6.929-2.271-13.298-6.026-18.523H158.559   c-3.755,5.225-6.026,11.594-6.026,18.523c0,15.443,11.003,28.313,25.591,31.221l-35.133,175.279h-6.385   c-17.59,0-31.852,14.262-31.852,31.852c0,9.239,3.997,17.488,10.28,23.306h-0.234c-16.174,0-29.292,13.118-29.292,29.293v12.279   c0,3.422,2.784,6.206,6.205,6.206h296.823c3.423,0,6.206-2.784,6.206-6.206v-12.279   C394.743,445.592,381.624,432.474,365.448,432.474z"
   id="path8282"
   style="fill:#cccccc" />
	<path
   d="M369.858,6.205c0-3.421-4.2-6.205-9.355-6.205h-44.435c-5.179,0-9.361,2.784-9.361,6.205v51.426h-35.002V6.205   c0-3.421-4.192-6.205-9.347-6.205h-44.465c-5.147,0-9.347,2.784-9.347,6.205v51.426h-35.002V6.205c0-3.421-4.184-6.205-9.363-6.205   h-44.433c-5.163,0-9.355,2.784-9.355,6.205v114.734h259.465V6.205z"
   id="path8284"
   style="fill:#cccccc" />
</g>
<g
   id="g8288">
</g>
<g
   id="g8290">
</g>
<g
   id="g8292">
</g>
<g
   id="g8294">
</g>
<g
   id="g8296">
</g>
<g
   id="g8298">
</g>
<g
   id="g8300">
</g>
<g
   id="g8302">
</g>
<g
   id="g8304">
</g>
<g
   id="g8306">
</g>
<g
   id="g8308">
</g>
<g
   id="g8310">
</g>
<g
   id="g8312">
</g>
<g
   id="g8314">
</g>
<g
   id="g8316">
</g>
</svg>
